{
	"asset":{
		"generator":"Khronos glTF Blender I/O v4.2.57",
		"version":"2.0"
	},
	"scene":0,
	"scenes":[
		{
			"name":"Scene",
			"nodes":[
				7
			]
		}
	],
	"nodes":[
		{
			"mesh":0,
			"name":"BodyBack_v2",
			"translation":[
				0.3781931400299072,
				0,
				-0.22435185313224792
			]
		},
		{
			"mesh":1,
			"name":"CatStamp",
			"rotation":[
				0,
				-0.1048099473118782,
				0,
				0.9944922924041748
			],
			"translation":[
				-2.174809455871582,
				0.2826771140098572,
				1.2009657621383667
			]
		},
		{
			"mesh":2,
			"name":"FatsCradleLogo.001",
			"rotation":[
				0,
				0.04900291934609413,
				0,
				0.998798668384552
			],
			"scale":[
				1.1262027025222778,
				1.1262027025222778,
				1.1262027025222778
			],
			"translation":[
				0.01127410028129816,
				0.25782960653305054,
				-1.608862280845642
			]
		},
		{
			"mesh":3,
			"name":"FlowerStamp",
			"translation":[
				-2.174520969390869,
				0.27542510628700256,
				0.41496706008911133
			]
		},
		{
			"mesh":4,
			"name":"Screen",
			"rotation":[
				-0.7071068286895752,
				0,
				0,
				0.7071068286895752
			],
			"translation":[
				0,
				0.3296915292739868,
				-0.01724780723452568
			]
		},
		{
			"mesh":5,
			"name":"Screen Border",
			"rotation":[
				-0.7071068286895752,
				0,
				0,
				0.7071068286895752
			],
			"translation":[
				0,
				0.29232925176620483,
				-0.014971904456615448
			]
		},
		{
			"mesh":6,
			"name":"Slider",
			"rotation":[
				-0.7071068286895752,
				0,
				0,
				0.7071068286895752
			],
			"translation":[
				-1.5280355215072632,
				0.29149287939071655,
				1.5035206079483032
			]
		},
		{
			"children":[
				0,
				1,
				2,
				3,
				4,
				5,
				6
			],
			"mesh":7,
			"name":"Body_v2",
			"rotation":[
				0.7071068286895752,
				0,
				0,
				0.7071068286895752
			]
		}
	],
	"materials":[
		{
			"doubleSided":true,
			"name":"Plastic_Perywinkle",
			"normalTexture":{
				"index":0,
				"scale":0.10000000149011612
			},
			"pbrMetallicRoughness":{
				"baseColorFactor":[
					0.18771159648895264,
					0.3661850690841675,
					0.9989067316055298,
					1
				],
				"metallicFactor":0.29429590702056885,
				"metallicRoughnessTexture":{
					"index":1
				}
			}
		},
		{
			"doubleSided":true,
			"name":"Plastic_Yellow",
			"normalTexture":{
				"index":2,
				"scale":0.5
			},
			"pbrMetallicRoughness":{
				"baseColorFactor":[
					0.7988657355308533,
					0.700359046459198,
					0,
					1
				],
				"metallicFactor":0.37272727489471436,
				"metallicRoughnessTexture":{
					"index":3
				}
			}
		},
		{
			"doubleSided":true,
			"name":"Plastic_Black",
			"normalTexture":{
				"index":4
			},
			"pbrMetallicRoughness":{
				"baseColorFactor":[
					0,
					0,
					0,
					1
				],
				"metallicFactor":0.37272727489471436,
				"metallicRoughnessTexture":{
					"index":5
				}
			}
		},
		{
			"doubleSided":true,
			"name":"Plastic_Purple",
			"normalTexture":{
				"index":6
			},
			"pbrMetallicRoughness":{
				"baseColorFactor":[
					0.11444233357906342,
					0.0930018350481987,
					0.5456249713897705,
					1
				],
				"metallicFactor":0.37272727489471436,
				"metallicRoughnessTexture":{
					"index":7
				}
			}
		},
		{
			"doubleSided":true,
			"name":"Plastic_White",
			"normalTexture":{
				"index":8
			},
			"pbrMetallicRoughness":{
				"baseColorFactor":[
					0.7988656759262085,
					0.7988656759262085,
					0.7988656759262085,
					1
				],
				"metallicFactor":0.37272727489471436,
				"metallicRoughnessTexture":{
					"index":9
				}
			}
		},
		{
			"doubleSided":true,
			"name":"Plastic_Green.001",
			"normalTexture":{
				"index":10,
				"scale":0.5
			},
			"pbrMetallicRoughness":{
				"baseColorFactor":[
					0.015208045020699501,
					0.3662530779838562,
					0.12477191537618637,
					1
				],
				"metallicFactor":0.37272727489471436,
				"metallicRoughnessTexture":{
					"index":11
				}
			}
		},
		{
			"doubleSided":true,
			"name":"ScreenHexGrid",
			"pbrMetallicRoughness":{
				"baseColorTexture":{
					"index":12,
					"texCoord":1
				},
				"metallicFactor":0,
				"roughnessFactor":0.5
			}
		},
		{
			"doubleSided":true,
			"name":"Plastic_Pink",
			"normalTexture":{
				"index":13,
				"scale":0.30000001192092896,
				"texCoord":1
			},
			"pbrMetallicRoughness":{
				"baseColorFactor":[
					0.8790318369865417,
					0.10690589994192123,
					0.309063196182251,
					1
				],
				"metallicFactor":0.37272727489471436,
				"metallicRoughnessTexture":{
					"index":14,
					"texCoord":1
				}
			}
		},
		{
			"doubleSided":true,
			"name":"Plastic_Orange",
			"normalTexture":{
				"index":15,
				"scale":0.5
			},
			"pbrMetallicRoughness":{
				"baseColorFactor":[
					0.9378361701965332,
					0.13834217190742493,
					0,
					1
				],
				"metallicFactor":0.37272727489471436,
				"metallicRoughnessTexture":{
					"index":16
				}
			}
		}
	],
	"meshes":[
		{
			"name":"Curve.001",
			"primitives":[
				{
					"attributes":{
						"POSITION":0,
						"NORMAL":1,
						"TEXCOORD_0":2
					},
					"indices":3,
					"material":0
				}
			]
		},
		{
			"name":"Curve.010",
			"primitives":[
				{
					"attributes":{
						"POSITION":4,
						"NORMAL":5,
						"TEXCOORD_0":6
					},
					"indices":7,
					"material":1
				},
				{
					"attributes":{
						"POSITION":8,
						"NORMAL":9,
						"TEXCOORD_0":10
					},
					"indices":11,
					"material":2
				}
			]
		},
		{
			"name":"Curve.003",
			"primitives":[
				{
					"attributes":{
						"POSITION":12,
						"NORMAL":13,
						"TEXCOORD_0":14
					},
					"indices":15,
					"material":3
				},
				{
					"attributes":{
						"POSITION":16,
						"NORMAL":17,
						"TEXCOORD_0":18
					},
					"indices":19,
					"material":4
				}
			]
		},
		{
			"name":"Curve.005",
			"primitives":[
				{
					"attributes":{
						"POSITION":20,
						"NORMAL":21,
						"TEXCOORD_0":22
					},
					"indices":23,
					"material":5
				},
				{
					"attributes":{
						"POSITION":24,
						"NORMAL":25,
						"TEXCOORD_0":26
					},
					"indices":27,
					"material":2
				}
			]
		},
		{
			"name":"Cube.001",
			"primitives":[
				{
					"attributes":{
						"POSITION":28,
						"NORMAL":29,
						"TEXCOORD_0":30,
						"TEXCOORD_1":31
					},
					"indices":32,
					"material":6
				}
			]
		},
		{
			"name":"Cube",
			"primitives":[
				{
					"attributes":{
						"POSITION":33,
						"NORMAL":34,
						"TEXCOORD_0":35,
						"TEXCOORD_1":36
					},
					"indices":37,
					"material":7
				}
			]
		},
		{
			"name":"Cube.003",
			"primitives":[
				{
					"attributes":{
						"POSITION":38,
						"NORMAL":39,
						"TEXCOORD_0":40
					},
					"indices":41,
					"material":8
				}
			]
		},
		{
			"name":"Curve",
			"primitives":[
				{
					"attributes":{
						"POSITION":42,
						"NORMAL":43,
						"TEXCOORD_0":44
					},
					"indices":45,
					"material":0
				},
				{
					"attributes":{
						"POSITION":46,
						"NORMAL":47,
						"TEXCOORD_0":48
					},
					"indices":49,
					"material":2
				}
			]
		}
	],
	"textures":[
		{
			"sampler":0,
			"source":0
		},
		{
			"sampler":0,
			"source":1
		},
		{
			"sampler":0,
			"source":0
		},
		{
			"sampler":0,
			"source":1
		},
		{
			"sampler":0,
			"source":0
		},
		{
			"sampler":0,
			"source":1
		},
		{
			"sampler":0,
			"source":0
		},
		{
			"sampler":0,
			"source":1
		},
		{
			"sampler":0,
			"source":0
		},
		{
			"sampler":0,
			"source":1
		},
		{
			"sampler":0,
			"source":0
		},
		{
			"sampler":0,
			"source":1
		},
		{
			"sampler":0,
			"source":2
		},
		{
			"sampler":0,
			"source":0
		},
		{
			"sampler":0,
			"source":1
		},
		{
			"sampler":0,
			"source":0
		},
		{
			"sampler":0,
			"source":1
		}
	],
	"images":[
		{
			"mimeType":"image/jpeg",
			"name":"plastic-texture-normal-4",
			"uri":"plastic-texture-normal-4.jpg"
		},
		{
			"mimeType":"image/png",
			"name":"plastic-smudge-smoothness copy",
			"uri":"plastic-smudge-smoothness%20copy.png"
		},
		{
			"mimeType":"image/jpeg",
			"name":"HexPattern_FullSize_v3",
			"uri":"HexPattern_FullSize_v3.jpg"
		}
	],
	"accessors":[
		{
			"bufferView":0,
			"componentType":5126,
			"count":2198,
			"max":[
				2.118091583251953,
				-0.23587961494922638,
				2.131943702697754
			],
			"min":[
				-2.90682053565979,
				-0.5358796119689941,
				-1.5378061532974243
			],
			"type":"VEC3"
		},
		{
			"bufferView":1,
			"componentType":5126,
			"count":2198,
			"type":"VEC3"
		},
		{
			"bufferView":2,
			"componentType":5126,
			"count":2198,
			"type":"VEC2"
		},
		{
			"bufferView":3,
			"componentType":5123,
			"count":11316,
			"type":"SCALAR"
		},
		{
			"bufferView":4,
			"componentType":5126,
			"count":400,
			"max":[
				0.3550175130367279,
				0.14452388882637024,
				0.35494253039360046
			],
			"min":[
				-0.3550179600715637,
				-0.25403642654418945,
				-0.35494300723075867
			],
			"type":"VEC3"
		},
		{
			"bufferView":5,
			"componentType":5126,
			"count":400,
			"type":"VEC3"
		},
		{
			"bufferView":6,
			"componentType":5126,
			"count":400,
			"type":"VEC2"
		},
		{
			"bufferView":7,
			"componentType":5123,
			"count":1140,
			"type":"SCALAR"
		},
		{
			"bufferView":8,
			"componentType":5126,
			"count":1502,
			"max":[
				0.2535485327243805,
				0.17576263844966888,
				0.25981947779655457
			],
			"min":[
				-0.25353145599365234,
				0.1445237696170807,
				-0.212503120303154
			],
			"type":"VEC3"
		},
		{
			"bufferView":9,
			"componentType":5126,
			"count":1502,
			"type":"VEC3"
		},
		{
			"bufferView":10,
			"componentType":5126,
			"count":1502,
			"type":"VEC2"
		},
		{
			"bufferView":11,
			"componentType":5123,
			"count":4452,
			"type":"SCALAR"
		},
		{
			"bufferView":12,
			"componentType":5126,
			"count":1876,
			"max":[
				1.0182371139526367,
				0.041144683957099915,
				0.2858043909072876
			],
			"min":[
				-1.0182373523712158,
				-0.013714894652366638,
				-0.2858043909072876
			],
			"type":"VEC3"
		},
		{
			"bufferView":13,
			"componentType":5126,
			"count":1876,
			"type":"VEC3"
		},
		{
			"bufferView":14,
			"componentType":5126,
			"count":1876,
			"type":"VEC2"
		},
		{
			"bufferView":15,
			"componentType":5123,
			"count":5364,
			"type":"SCALAR"
		},
		{
			"bufferView":16,
			"componentType":5126,
			"count":9531,
			"max":[
				0.8466061949729919,
				0.09600426256656647,
				0.12257921695709229
			],
			"min":[
				-0.8466015458106995,
				0.041144683957099915,
				-0.14628663659095764
			],
			"type":"VEC3"
		},
		{
			"bufferView":17,
			"componentType":5126,
			"count":9531,
			"type":"VEC3"
		},
		{
			"bufferView":18,
			"componentType":5126,
			"count":9531,
			"type":"VEC2"
		},
		{
			"bufferView":19,
			"componentType":5123,
			"count":24636,
			"type":"SCALAR"
		},
		{
			"bufferView":20,
			"componentType":5126,
			"count":400,
			"max":[
				0.3550174832344055,
				0.14452388882637024,
				0.3549425005912781
			],
			"min":[
				-0.3550179600715637,
				-0.25403642654418945,
				-0.3549429774284363
			],
			"type":"VEC3"
		},
		{
			"bufferView":21,
			"componentType":5126,
			"count":400,
			"type":"VEC3"
		},
		{
			"bufferView":22,
			"componentType":5126,
			"count":400,
			"type":"VEC2"
		},
		{
			"bufferView":23,
			"componentType":5123,
			"count":1140,
			"type":"SCALAR"
		},
		{
			"bufferView":24,
			"componentType":5126,
			"count":1311,
			"max":[
				0.2701754868030548,
				0.17448757588863373,
				0.25045159459114075
			],
			"min":[
				-0.2630656361579895,
				0.14452384412288666,
				-0.243704155087471
			],
			"type":"VEC3"
		},
		{
			"bufferView":25,
			"componentType":5126,
			"count":1311,
			"type":"VEC3"
		},
		{
			"bufferView":26,
			"componentType":5126,
			"count":1311,
			"type":"VEC2"
		},
		{
			"bufferView":27,
			"componentType":5123,
			"count":3732,
			"type":"SCALAR"
		},
		{
			"bufferView":28,
			"componentType":5126,
			"count":36,
			"max":[
				1.607235074043274,
				1.0825408697128296,
				-0.07063770294189453
			],
			"min":[
				-1.607235074043274,
				-1.0825408697128296,
				-0.07063770294189453
			],
			"type":"VEC3"
		},
		{
			"bufferView":29,
			"componentType":5126,
			"count":36,
			"type":"VEC3"
		},
		{
			"bufferView":30,
			"componentType":5126,
			"count":36,
			"type":"VEC2"
		},
		{
			"bufferView":31,
			"componentType":5126,
			"count":36,
			"type":"VEC2"
		},
		{
			"bufferView":32,
			"componentType":5123,
			"count":102,
			"type":"SCALAR"
		},
		{
			"bufferView":33,
			"componentType":5126,
			"count":23411,
			"max":[
				1.823067307472229,
				1.254589557647705,
				0.0066308556124567986
			],
			"min":[
				-1.8230684995651245,
				-1.254589557647705,
				-0.07063771039247513
			],
			"type":"VEC3"
		},
		{
			"bufferView":34,
			"componentType":5126,
			"count":23411,
			"type":"VEC3"
		},
		{
			"bufferView":35,
			"componentType":5126,
			"count":23411,
			"type":"VEC2"
		},
		{
			"bufferView":36,
			"componentType":5126,
			"count":23411,
			"type":"VEC2"
		},
		{
			"bufferView":37,
			"componentType":5123,
			"count":62124,
			"type":"SCALAR"
		},
		{
			"bufferView":38,
			"componentType":5126,
			"count":322,
			"max":[
				0.20670826733112335,
				0.12575840950012207,
				0.02213025838136673
			],
			"min":[
				-0.20670825242996216,
				-0.12575840950012207,
				-0.1229114979505539
			],
			"type":"VEC3"
		},
		{
			"bufferView":39,
			"componentType":5126,
			"count":322,
			"type":"VEC3"
		},
		{
			"bufferView":40,
			"componentType":5126,
			"count":322,
			"type":"VEC2"
		},
		{
			"bufferView":41,
			"componentType":5123,
			"count":1728,
			"type":"SCALAR"
		},
		{
			"bufferView":42,
			"componentType":5126,
			"count":8228,
			"max":[
				2.6708250045776367,
				0.23587970435619354,
				2.0756192207336426
			],
			"min":[
				-2.751577615737915,
				-0.23587973415851593,
				-1.8870594501495361
			],
			"type":"VEC3"
		},
		{
			"bufferView":43,
			"componentType":5126,
			"count":8228,
			"type":"VEC3"
		},
		{
			"bufferView":44,
			"componentType":5126,
			"count":8228,
			"type":"VEC2"
		},
		{
			"bufferView":45,
			"componentType":5123,
			"count":34026,
			"type":"SCALAR"
		},
		{
			"bufferView":46,
			"componentType":5126,
			"count":4,
			"max":[
				1.6303449869155884,
				0.02884960174560547,
				1.5385870933532715
			],
			"min":[
				-1.6303449869155884,
				0.02884960174560547,
				1.46238112449646
			],
			"type":"VEC3"
		},
		{
			"bufferView":47,
			"componentType":5126,
			"count":4,
			"type":"VEC3"
		},
		{
			"bufferView":48,
			"componentType":5126,
			"count":4,
			"type":"VEC2"
		},
		{
			"bufferView":49,
			"componentType":5123,
			"count":6,
			"type":"SCALAR"
		}
	],
	"bufferViews":[
		{
			"buffer":0,
			"byteLength":26376,
			"byteOffset":0,
			"target":34962
		},
		{
			"buffer":0,
			"byteLength":26376,
			"byteOffset":26376,
			"target":34962
		},
		{
			"buffer":0,
			"byteLength":17584,
			"byteOffset":52752,
			"target":34962
		},
		{
			"buffer":0,
			"byteLength":22632,
			"byteOffset":70336,
			"target":34963
		},
		{
			"buffer":0,
			"byteLength":4800,
			"byteOffset":92968,
			"target":34962
		},
		{
			"buffer":0,
			"byteLength":4800,
			"byteOffset":97768,
			"target":34962
		},
		{
			"buffer":0,
			"byteLength":3200,
			"byteOffset":102568,
			"target":34962
		},
		{
			"buffer":0,
			"byteLength":2280,
			"byteOffset":105768,
			"target":34963
		},
		{
			"buffer":0,
			"byteLength":18024,
			"byteOffset":108048,
			"target":34962
		},
		{
			"buffer":0,
			"byteLength":18024,
			"byteOffset":126072,
			"target":34962
		},
		{
			"buffer":0,
			"byteLength":12016,
			"byteOffset":144096,
			"target":34962
		},
		{
			"buffer":0,
			"byteLength":8904,
			"byteOffset":156112,
			"target":34963
		},
		{
			"buffer":0,
			"byteLength":22512,
			"byteOffset":165016,
			"target":34962
		},
		{
			"buffer":0,
			"byteLength":22512,
			"byteOffset":187528,
			"target":34962
		},
		{
			"buffer":0,
			"byteLength":15008,
			"byteOffset":210040,
			"target":34962
		},
		{
			"buffer":0,
			"byteLength":10728,
			"byteOffset":225048,
			"target":34963
		},
		{
			"buffer":0,
			"byteLength":114372,
			"byteOffset":235776,
			"target":34962
		},
		{
			"buffer":0,
			"byteLength":114372,
			"byteOffset":350148,
			"target":34962
		},
		{
			"buffer":0,
			"byteLength":76248,
			"byteOffset":464520,
			"target":34962
		},
		{
			"buffer":0,
			"byteLength":49272,
			"byteOffset":540768,
			"target":34963
		},
		{
			"buffer":0,
			"byteLength":4800,
			"byteOffset":590040,
			"target":34962
		},
		{
			"buffer":0,
			"byteLength":4800,
			"byteOffset":594840,
			"target":34962
		},
		{
			"buffer":0,
			"byteLength":3200,
			"byteOffset":599640,
			"target":34962
		},
		{
			"buffer":0,
			"byteLength":2280,
			"byteOffset":602840,
			"target":34963
		},
		{
			"buffer":0,
			"byteLength":15732,
			"byteOffset":605120,
			"target":34962
		},
		{
			"buffer":0,
			"byteLength":15732,
			"byteOffset":620852,
			"target":34962
		},
		{
			"buffer":0,
			"byteLength":10488,
			"byteOffset":636584,
			"target":34962
		},
		{
			"buffer":0,
			"byteLength":7464,
			"byteOffset":647072,
			"target":34963
		},
		{
			"buffer":0,
			"byteLength":432,
			"byteOffset":654536,
			"target":34962
		},
		{
			"buffer":0,
			"byteLength":432,
			"byteOffset":654968,
			"target":34962
		},
		{
			"buffer":0,
			"byteLength":288,
			"byteOffset":655400,
			"target":34962
		},
		{
			"buffer":0,
			"byteLength":288,
			"byteOffset":655688,
			"target":34962
		},
		{
			"buffer":0,
			"byteLength":204,
			"byteOffset":655976,
			"target":34963
		},
		{
			"buffer":0,
			"byteLength":280932,
			"byteOffset":656180,
			"target":34962
		},
		{
			"buffer":0,
			"byteLength":280932,
			"byteOffset":937112,
			"target":34962
		},
		{
			"buffer":0,
			"byteLength":187288,
			"byteOffset":1218044,
			"target":34962
		},
		{
			"buffer":0,
			"byteLength":187288,
			"byteOffset":1405332,
			"target":34962
		},
		{
			"buffer":0,
			"byteLength":124248,
			"byteOffset":1592620,
			"target":34963
		},
		{
			"buffer":0,
			"byteLength":3864,
			"byteOffset":1716868,
			"target":34962
		},
		{
			"buffer":0,
			"byteLength":3864,
			"byteOffset":1720732,
			"target":34962
		},
		{
			"buffer":0,
			"byteLength":2576,
			"byteOffset":1724596,
			"target":34962
		},
		{
			"buffer":0,
			"byteLength":3456,
			"byteOffset":1727172,
			"target":34963
		},
		{
			"buffer":0,
			"byteLength":98736,
			"byteOffset":1730628,
			"target":34962
		},
		{
			"buffer":0,
			"byteLength":98736,
			"byteOffset":1829364,
			"target":34962
		},
		{
			"buffer":0,
			"byteLength":65824,
			"byteOffset":1928100,
			"target":34962
		},
		{
			"buffer":0,
			"byteLength":68052,
			"byteOffset":1993924,
			"target":34963
		},
		{
			"buffer":0,
			"byteLength":48,
			"byteOffset":2061976,
			"target":34962
		},
		{
			"buffer":0,
			"byteLength":48,
			"byteOffset":2062024,
			"target":34962
		},
		{
			"buffer":0,
			"byteLength":32,
			"byteOffset":2062072,
			"target":34962
		},
		{
			"buffer":0,
			"byteLength":12,
			"byteOffset":2062104,
			"target":34963
		}
	],
	"samplers":[
		{
			"magFilter":9729,
			"minFilter":9987
		}
	],
	"buffers":[
		{
			"byteLength":2062116,
			"uri":"MagnaSketch_3dModel.bin"
		}
	]
}
