<svg fill="none" height="44" viewBox="0 0 200 44" width="200" xmlns="http://www.w3.org/2000/svg" xmlns:xlink="http://www.w3.org/1999/xlink"><filter id="a" color-interpolation-filters="sRGB" filterUnits="userSpaceOnUse" height="40.3937" width="90.2584" x="109.162" y=".715864"><feFlood flood-opacity="0" result="BackgroundImageFix"/><feColorMatrix in="SourceAlpha" result="hardAlpha" type="matrix" values="0 0 0 0 0 0 0 0 0 0 0 0 0 0 0 0 0 0 127 0"/><feOffset dx="-.721547" dy=".721547"/><feGaussianBlur stdDeviation="1.01017"/><feComposite in2="hardAlpha" operator="out"/><feColorMatrix type="matrix" values="0 0 0 0 0 0 0 0 0 0 0 0 0 0 0 0 0 0 0.5 0"/><feBlend in2="BackgroundImageFix" mode="normal" result="effect1_dropShadow_452_357"/><feBlend in="SourceGraphic" in2="effect1_dropShadow_452_357" mode="normal" result="shape"/></filter><filter id="b" color-interpolation-filters="sRGB" filterUnits="userSpaceOnUse" height="35.5592" width="36.5607" x="73.5474" y="3.7017"><feFlood flood-opacity="0" result="BackgroundImageFix"/><feColorMatrix in="SourceAlpha" result="hardAlpha" type="matrix" values="0 0 0 0 0 0 0 0 0 0 0 0 0 0 0 0 0 0 127 0"/><feOffset dx="-.721547" dy=".721547"/><feGaussianBlur stdDeviation="1.01017"/><feComposite in2="hardAlpha" operator="out"/><feColorMatrix type="matrix" values="0 0 0 0 0 0 0 0 0 0 0 0 0 0 0 0 0 0 0.5 0"/><feBlend in2="BackgroundImageFix" mode="normal" result="effect1_dropShadow_452_357"/><feBlend in="SourceGraphic" in2="effect1_dropShadow_452_357" mode="normal" result="shape"/></filter><filter id="c" color-interpolation-filters="sRGB" filterUnits="userSpaceOnUse" height="43.004" width="79.1889" x=".258122" y=".701216"><feFlood flood-opacity="0" result="BackgroundImageFix"/><feColorMatrix in="SourceAlpha" result="hardAlpha" type="matrix" values="0 0 0 0 0 0 0 0 0 0 0 0 0 0 0 0 0 0 127 0"/><feOffset dx="-.721547" dy=".721547"/><feGaussianBlur stdDeviation="1.01017"/><feComposite in2="hardAlpha" operator="out"/><feColorMatrix type="matrix" values="0 0 0 0 0 0 0 0 0 0 0 0 0 0 0 0 0 0 0.5 0"/><feBlend in2="BackgroundImageFix" mode="normal" result="effect1_dropShadow_452_357"/><feBlend in="SourceGraphic" in2="effect1_dropShadow_452_357" mode="normal" result="shape"/></filter><g filter="url(#a)"><path d="m198.122 7.52163-84.2-5.50698-2.018 30.84585 84.201 5.507z" fill="#000"/></g><path d="m112.747 31.4607 1.902-29.08067 82.351 5.38597-1.902 29.0806z" fill="#efeff0" stroke="#000" stroke-width=".432928"/><g fill="#000"><path d="m129.506 15.849c.668.7011.963 1.6516.884 2.8519l-6.387-.4179c-.035 1.5569.243 2.7111.834 3.4616.59.7506 1.322 1.1551 2.194 1.2127.704.0457 1.309-.1 1.816-.4363s.987-.8295 1.441-1.4786l.344.144c-.331.8354-.898 1.5909-1.699 2.2667-.802.6759-1.751.9784-2.843.9069-1.261-.0827-2.204-.6221-2.829-1.6199-.625-.9971-.897-2.1158-.815-3.3569.088-1.3481.563-2.4849 1.425-3.4128.861-.9267 1.934-1.348 3.215-1.2642.945.0618 1.751.4433 2.42 1.1428zm-4.869.4552c-.238.3475-.422.7941-.552 1.3378l4.245.2778c-.03-.6754-.125-1.1831-.285-1.5237-.29-.612-.821-.9429-1.591-.9934-.765-.0499-1.37.251-1.817.9016z"/><path d="m137.111 15.5543-.018.2816c-.255-.0096-.474.0112-.655.0634-.183.0521-.28.1783-.292.3792-.009.128.146.4981.463 1.1116.17.3175.389.7065.654 1.1696.425-.5114.743-.9134.953-1.2056.361-.4744.547-.786.557-.9333.012-.1746-.052-.2965-.188-.3664-.137-.0699-.332-.123-.587-.1596l.018-.2816 3.24.2117-.018.2815c-.344.0049-.669.0763-.974.2144-.306.1387-.557.3326-.755.5825l-1.862 2.3393 2.371 4.2299c.308.5459.576.9037.805 1.0736.227.1692.495.2713.803.3051l-.019.2815-4.154-.2718.018-.2815.294-.0016c.154-.0033.287-.0414.396-.115.109-.0741.168-.1708.175-.2911.009-.128-.1-.418-.327-.871-.104-.2251-.264-.5335-.476-.9241-.1-.1919-.251-.4578-.451-.7995-.199-.3417-.367-.6335-.503-.8752l-1.813 2.458c-.215.2891-.348.482-.402.5797-.054.0972-.083.18-.087.2466-.009.1273.039.2149.14.2617.101.0473.324.1053.67.1757l-.018.2816-2.978-.1951.019-.2815c.366-.0506.641-.1263.823-.2294.181-.1026.43-.3514.745-.7489l2.508-3.258-1.68-3.0528c-.352-.6082-.597-.9715-.737-1.0891-.141-.1161-.458-.2144-.951-.2944l.018-.2816z"/><path d="m142.713 29.3766c.628.0011 1.036-.1069 1.221-.3235.184-.217.293-.5706.325-1.06l.632-9.657c.033-.5093-.007-.8409-.124-.9934-.113-.152-.341-.2396-.684-.2622-.073-.0049-.143-.0054-.206-.0033-.065.0028-.158.0103-.28.0221l.022-.3321.975-.2487c.035-.0042.724-.1913 2.068-.562.033.0022.058.0189.073.05.014.0312.02.0671.018.1074l-.089 1.3572c.471-.4132.881-.7167 1.231-.909.629-.3352 1.261-.4825 1.898-.4406.925.0602 1.697.5056 2.311 1.3362.617.8312.879 1.9294.79 3.2962-.087 1.3405-.567 2.5305-1.44 3.5696s-1.916 1.5199-3.13 1.4404c-.375-.0247-.699-.0929-.966-.2046-.42-.1693-.8-.4529-1.137-.8516l-.216 3.2989c-.044.6775.039 1.0998.25 1.269.212.1688.687.3042 1.428.4063l-.022.3524-4.97-.3256.021-.3321zm4.296-4.734c.33.2471.731.3858 1.199.4164.724.0478 1.367-.2725 1.927-.9591.56-.6855.882-1.6721.967-2.9582.08-1.232-.127-2.17-.62-2.8149-.492-.6447-1.092-.9896-1.796-1.0353-.496-.0328-.958.0897-1.388.3675-.429.2788-.652.5648-.672.8592l-.331 5.0535c.145.4669.382.8238.714 1.0709z"/><path d="m154.472 25.6915c.626-.0198 1.058-.1176 1.292-.295.234-.1762.368-.5432.405-1.0998l.642-9.8284c.029-.4421.013-.7495-.049-.922-.116-.2907-.379-.4491-.788-.476-.094-.0065-.196-.0032-.309.0096-.111.0129-.253.0345-.424.0634l.023-.3321c.921-.182 2.032-.433 3.332-.7521.048.0032.074.0258.082.0666.007.0403.006.1284-.002.2627l-.789 12.0613c-.038.5829.038.967.228 1.1509.19.1848.598.3207 1.225.4088l-.018.2816-4.868-.3182.018-.2815z"/><path d="m162.921 18.4393c.909-.8666 2.03-1.2561 3.365-1.1691 1.328.087 2.4.5953 3.213 1.5237.816.9295 1.176 2.1174 1.081 3.5658-.088 1.3351-.585 2.4672-1.495 3.3978-.909.9311-2.035 1.3528-3.377 1.2647-1.287-.0839-2.347-.6286-3.176-1.6327-.831-1.0037-1.198-2.2196-1.105-3.6486.087-1.3335.586-2.435 1.494-3.3016zm1.624-.151c-.713.5657-1.117 1.5968-1.215 3.092-.078 1.1938.12 2.3248.593 3.3934.473 1.0682 1.19 1.6334 2.151 1.6961.753.0495 1.355-.2584 1.806-.922.451-.6645.714-1.5565.788-2.6766.075-1.16-.112-2.27-.562-3.3295-.451-1.0601-1.166-1.6227-2.147-1.6866-.531-.0349-1.003.1091-1.414.4331z"/><path d="m171.857 26.778c.62-.0135 1.037-.0951 1.249-.2471.211-.1504.335-.4949.37-1.0311l.297-4.5368c.043-.6641.012-1.1428-.094-1.4362-.105-.2934-.322-.4496-.651-.4712-.066-.0049-.155-.0021-.267.007-.112.0102-.229.0247-.352.0429l.022-.3321c.389-.1096.79-.2208 1.2-.3352.41-.1156.694-.1972.852-.2477.343-.1053.696-.2273 1.061-.3653.047.0027.074.0221.082.0559.007.0344.008.1053.002.2123l-.109 1.6499c.47-.5689.916-1.0073 1.337-1.3168.422-.3089.849-.4497 1.278-.4218.344.0225.616.1433.818.3615.202.2186.293.482.273.7913-.018.2751-.115.5007-.292.6769-.176.1784-.389.2579-.637.2418-.255-.0166-.504-.1504-.746-.4019-.244-.2519-.439-.3831-.587-.3927-.234-.0151-.535.1557-.902.512-.367.3562-.564.7366-.589 1.1386l-.297 4.5373c-.038.577.07.9859.324 1.2282.253.2418.693.3772 1.317.404l-.022.3321-4.959-.324.022-.3321z"/><path d="m187.206 19.6234c.668.7007.963 1.6511.884 2.8513l-6.387-.4174c-.034 1.5564.243 2.7111.834 3.4611.59.7512 1.322 1.1556 2.194 1.2127.704.0461 1.309-.0994 1.816-.4357.507-.3368.988-.8295 1.44-1.4786l.345.1434c-.331.8354-.897 1.5909-1.699 2.2673-.802.6759-1.75.9778-2.843.9064-1.261-.0822-2.204-.6221-2.828-1.6199-.627-.9966-.898-2.1152-.816-3.3563.088-1.348.563-2.4855 1.425-3.4133.862-.9263 1.934-1.3481 3.215-1.2642.946.0617 1.751.4432 2.42 1.1432zm-4.869.4546c-.238.3481-.422.794-.552 1.3383l4.245.2772c-.03-.6748-.124-1.1831-.284-1.5237-.291-.612-.821-.943-1.592-.9934-.765-.0499-1.371.251-1.817.9016z"/></g><g filter="url(#b)"><path d="m108.809 5.61296-31.9269-.61247-.5929 30.90611 31.9268.6125z" fill="#000"/></g><path d="m76.7356 34.4635.5589-29.13746 30.9565.59386-.559 29.1374z" fill="#efeff0" stroke="#000" stroke-width=".432928"/><path d="m89.0211 15.9903-.014.7253-2.0566-.0392-.1311 5.8053c-.0096.5109.0269.8983.1086 1.1621.1526.4668.4643.7043.9349.7134.2407.0043.4524-.0482.6328-.1596.1795-.1107.3869-.288.62-.5324l.2578.2268-.2277.2981c-.3589.4643-.7349.7893-1.1283.9762-.3932.1875-.7705.2778-1.1337.2708-.7929-.0151-1.3238-.3782-1.5935-1.0891-.1462-.3862-.2128-.9181-.2-1.5968l.1172-6.1082-1.0992-.0215c-.0333-.0205-.058-.0413-.0741-.0613-.0161-.0209-.0247-.0478-.0236-.0811.0011-.0671.0172-.1193.0483-.1557.0311-.0365.1279-.1198.2923-.2515.4706-.3739.8113-.678 1.0197-.9128.2107-.2342.7039-.8554 1.484-1.8622.087.0016.1386.0091.1557.0231.0161.0134.0236.0645.0215.1515l-.0473 2.4801z" fill="#000"/><path d="m92.1267 17.2745c.8682-.908 1.9697-1.3486 3.3074-1.3227 1.3303.0258 2.4242.4829 3.2806 1.3732.8574.8908 1.2712 2.0611 1.2432 3.5127-.0258 1.3374-.4706 2.4919-1.3367 3.4633-.865.9708-1.9697 1.4442-3.3139 1.4185-1.2905-.0247-2.3727-.5196-3.2484-1.484-.8757-.9649-1.2991-2.1625-1.2723-3.5938.0258-1.3367.4717-2.4592 1.34-3.3671zm1.615-.2258c-.6855.5981-1.0423 1.6467-1.0703 3.1447-.0236 1.1966.2257 2.3168.7479 3.3623.5223 1.0456 1.2648 1.577 2.2276 1.5952.7543.0145 1.3411-.3197 1.7611-1.0041.4212-.6846.6415-1.5877.6631-2.71.0226-1.1622-.2149-2.2625-.7146-3.3006-.4986-1.038-1.239-1.5667-2.2222-1.5854-.5319-.0102-.9961.1551-1.3926.4979z" fill="#000"/><g filter="url(#c)"><path d="m74.6083 1.99992-71.6083 8.25498 3.54005 30.7084 71.60825-8.255z" fill="#000"/></g><path d="m7.04189 39.4445-3.33746-28.951 69.97187-8.06635 3.3375 28.95105z" fill="#efeff0" stroke="#000" stroke-width=".432928"/><path d="m16.0845 26.9633.3305-.0382c.2407.7442.5142 1.304.8216 1.6817.5517.6936 1.2776.9891 2.1769.8854.4997-.0575.8785-.2417 1.1358-.5524.2585-.3105.3622-.6861.3111-1.1266-.0321-.28-.1472-.541-.3444-.7823-.1967-.2417-.5195-.4605-.9682-.6592l-1.1954-.512c-.872-.3461-1.5276-.7205-1.9665-1.1229-.4389-.403-.6936-.9075-.764-1.5157-.086-.7473.1107-1.3926.5888-1.9348.4792-.5426 1.1223-.8602 1.9304-.9531.3535-.0408.7495-.0188 1.1896.0662.4395.0844.6855.1235.7388.1172.1209-.014.2053-.0403.2547-.08.0499-.0392.0908-.0979.1219-.1762l.2408-.0275.3922 2.7853-.3111.0359c-.2079-.6319-.4466-1.1159-.7146-1.4495-.4911-.62-1.1267-.885-1.9084-.7946-.4674.0538-.8177.2401-1.052.5571-.2337.3175-.3282.6705-.2836 1.0579.0709.6141.5948 1.1084 1.5716 1.4835l1.4033.5582c1.5119.6109 2.3264 1.4302 2.4446 2.458.0913.7876-.129 1.4663-.662 2.0347-.5319.569-1.2744.9086-2.2275 1.0188-.3997.0461-.8607.0312-1.3829-.0441-.5211-.0752-.8295-.1074-.923-.0967-.0795.0096-.1461.0462-.1993.1096-.0538.0634-.0923.137-.1161.2214l-.2605.0295-.3729-3.2344z" fill="#000"/><path d="m30.44 19.5879c.6544.36 1.0106.7953 1.0691 1.3072.0259.2202-.0274.4335-.159.6409-.1315.2075-.3584.3289-.6791.366-.2338.0268-.4475-.0296-.6431-.1693-.1956-.1396-.3508-.3584-.4664-.656l-.1757-.4669c-.1279-.3445-.3067-.5771-.5372-.6995-.2364-.1144-.5347-.151-.8951-.1096-.7613.0881-1.3658.4943-1.8133 1.2202-.447.7258-.6077 1.6397-.4804 2.7433.1161 1.009.5093 1.8816 1.1794 2.617.67.7356 1.4963 1.0472 2.4768.9338.6948-.08 1.2857-.3783 1.7752-.8962.2767-.2955.5759-.7506.8978-1.3642l.2997.1387c-.288.8462-.6151 1.5264-.9821 2.0438-.7049.9885-1.5871 1.5441-2.6487 1.666-1.0412.1203-2.0105-.1848-2.9067-.9134-.8957-.729-1.4243-1.7977-1.5871-3.2064-.159-1.3819.1408-2.6208.9004-3.7164.7603-1.0955 1.808-1.7203 3.1436-1.8746.8339-.0956 1.5779.0356 2.2319.3956z" fill="#000"/><path d="m34.1955 27.7369c.6077-.124 1.0025-.2794 1.1842-.4659.1811-.1864.2413-.547.1795-1.0815l-.5207-4.5163c-.0762-.6608-.1923-1.1262-.3487-1.3952-.1563-.2702-.3976-.3858-.7248-.3476-.0671.0075-.1547.0258-.2627.0543-.1079.0301-.2208.0655-.3379.1058l-.0382-.3305c.3638-.1778.7377-.3589 1.1208-.5453.3831-.1865.6479-.3181.7936-.396.3181-.165.6447-.3487.9789-.5491.0462-.0054.0769.0086.0908.0398.0135.0328.0269.1021.0392.209l.1891 1.642c.3599-.6431.72-1.1546 1.0794-1.5344.3599-.3793.7538-.5942 1.1826-.6437.3417-.0392.6307.0301.8693.209.2375.179.3739.4218.4095.7296.0317.2734-.0236.513-.1655.7188-.1419.2063-.3368.3235-.5841.352-.2535.0289-.5222-.0586-.8059-.2627-.2848-.2042-.5002-.2977-.6468-.2811-.2338.0275-.4986.2494-.7957.6652-.2972.4169-.4229.8258-.3767 1.226l.5207 4.5168c.0666.5744.2461.9575.5388 1.1503.2928.1928.7485.2466 1.3685.1617l.0382.3305-4.9371.569-.0382-.3305z" fill="#000"/><path d="m42.6776 18.9707c.7393-1.0149 1.7719-1.5995 3.1011-1.7526 1.3217-.1526 2.4666.1553 3.4348.923.9682.7683 1.5344 1.873 1.701 3.315.1531 1.3293-.1338 2.5327-.8623 3.6111-.728 1.0782-1.7596 1.6945-3.0953 1.8487-1.2814.1478-2.4209-.1983-3.4176-1.0374-.9966-.8386-1.5758-1.9697-1.7397-3.3913-.1536-1.3287.1397-2.5006.878-3.5165zm1.5699-.4395c-.599.6851-.8123 1.7714-.6409 3.2603.137 1.1884.534 2.2657 1.1912 3.2323.6565.9654 1.4635 1.3937 2.4198 1.2835.7496-.0865 1.2868-.4969 1.6118-1.2309.3256-.7344.4233-1.6591.295-2.7745-.1326-1.1546-.5153-2.2135-1.1481-3.1752-.6329-.9617-1.4378-1.3868-2.414-1.2745-.5287.0613-.9671.2874-1.3148.6792z" fill="#000"/><path d="m53.2982 25.5858c.6135-.1317 1.0197-.3058 1.2185-.5212.1983-.2154.2654-.6011.2014-1.1551l-1.1277-9.7843c-.051-.4406-.1225-.7398-.2154-.8983-.1654-.2655-.4523-.3745-.8596-.3272-.0934.0107-.1944.0322-.3014.065-.1079.0328-.2433.079-.4055.1386l-.0382-.3304c.8736-.345 1.9219-.7904 3.1441-1.3374.0468-.0053.0774.0119.0924.0506.0145.0392.0296.1251.0452.2589l1.384 12.0076c.0666.5808.21.9445.4303 1.0918.2191.1472.6458.2074 1.2793.1827l.0322.2799-4.8473.5587z" fill="#000"/><path d="m59.838 24.8327c.6135-.1316 1.0197-.3057 1.218-.5211s.2655-.6012.2014-1.1552l-1.1276-9.7843c-.0511-.4405-.1226-.7398-.2155-.8983-.1654-.2654-.4523-.3745-.8596-.3272-.0929.0107-.1939.0322-.3013.065-.108.0328-.2434.079-.4056.1387l-.0382-.331c.8736-.3444 1.9224-.7898 3.1441-1.3367.0473-.0054.0774.0119.0924.0505.0145.0392.0296.1252.0445.259l1.3846 12.0076c.0671.5808.2106.9445.4303 1.0917.2196.1473.6463.2074 1.2786.1827l.0329.28-4.8468.5587z" fill="#000"/></svg>