<svg width="200" height="44" viewBox="0 0 200 44" fill="none" xmlns="http://www.w3.org/2000/svg">
<g filter="url(#filter0_d_452_357)">
<path d="M198.122 7.52163L113.922 2.01465L111.904 32.8605L196.105 38.3675L198.122 7.52163Z" fill="black"/>
</g>
<path d="M112.747 31.4607L114.649 2.38003L197 7.766L195.098 36.8466L112.747 31.4607Z" fill="#EFEFF0" stroke="black" stroke-width="0.432928"/>
<path d="M129.506 15.849C130.174 16.5501 130.469 17.5006 130.39 18.7009L124.003 18.283C123.968 19.8399 124.246 20.9941 124.837 21.7446C125.427 22.4952 126.159 22.8997 127.031 22.9573C127.735 23.003 128.34 22.8573 128.847 22.521C129.354 22.1847 129.834 21.6915 130.288 21.0424L130.632 21.1864C130.301 22.0218 129.734 22.7773 128.933 23.4531C128.131 24.129 127.182 24.4315 126.09 24.36C124.829 24.2773 123.886 23.7379 123.261 22.7401C122.636 21.743 122.364 20.6243 122.446 19.3832C122.534 18.0351 123.009 16.8983 123.871 15.9704C124.732 15.0437 125.805 14.6224 127.086 14.7062C128.031 14.768 128.837 15.1495 129.506 15.849H129.506ZM124.637 16.3042C124.399 16.6517 124.215 17.0983 124.085 17.642L128.33 17.9198C128.3 17.2444 128.205 16.7367 128.045 16.3961C127.755 15.7841 127.224 15.4532 126.454 15.4027C125.689 15.3528 125.084 15.6537 124.637 16.3043L124.637 16.3042Z" fill="black"/>
<path d="M137.111 15.5543L137.093 15.8359C136.838 15.8263 136.619 15.8471 136.438 15.8993C136.255 15.9514 136.158 16.0776 136.146 16.2785C136.137 16.4065 136.292 16.7766 136.609 17.3901C136.779 17.7076 136.998 18.0966 137.263 18.5597C137.688 18.0483 138.006 17.6463 138.216 17.3541C138.577 16.8797 138.763 16.5681 138.773 16.4208C138.785 16.2462 138.721 16.1243 138.585 16.0544C138.448 15.9845 138.253 15.9314 137.998 15.8948L138.016 15.6132L141.256 15.8249L141.238 16.1064C140.894 16.1113 140.569 16.1827 140.264 16.3208C139.958 16.4595 139.707 16.6534 139.509 16.9033L137.647 19.2426L140.018 23.4725C140.326 24.0184 140.594 24.3762 140.823 24.5461C141.05 24.7153 141.318 24.8174 141.626 24.8512L141.607 25.1327L137.453 24.8609L137.471 24.5794L137.765 24.5778C137.919 24.5745 138.052 24.5364 138.161 24.4628C138.27 24.3887 138.329 24.292 138.336 24.1717C138.345 24.0437 138.236 23.7537 138.009 23.3007C137.905 23.0756 137.745 22.7672 137.533 22.3766C137.433 22.1847 137.282 21.9188 137.082 21.5771C136.883 21.2354 136.715 20.9436 136.579 20.7019L134.766 23.1599C134.551 23.449 134.418 23.6419 134.364 23.7396C134.31 23.8368 134.281 23.9196 134.277 23.9862C134.268 24.1135 134.316 24.2011 134.417 24.2479C134.518 24.2952 134.741 24.3532 135.087 24.4236L135.069 24.7052L132.091 24.5101L132.11 24.2286C132.476 24.178 132.751 24.1023 132.933 23.9992C133.114 23.8966 133.363 23.6478 133.678 23.2503L136.186 19.9923L134.506 16.9395C134.154 16.3313 133.909 15.968 133.769 15.8504C133.628 15.7343 133.311 15.636 132.818 15.556L132.836 15.2744L137.111 15.5543Z" fill="black"/>
<path d="M142.713 29.3766C143.341 29.3777 143.749 29.2697 143.934 29.0531C144.118 28.8361 144.227 28.4825 144.259 27.9931L144.891 18.3361C144.924 17.8268 144.884 17.4952 144.767 17.3427C144.654 17.1907 144.426 17.1031 144.083 17.0805C144.01 17.0756 143.94 17.0751 143.877 17.0772C143.812 17.08 143.719 17.0875 143.597 17.0993L143.619 16.7672L144.594 16.5185C144.629 16.5143 145.318 16.3272 146.662 15.9565C146.695 15.9587 146.72 15.9754 146.735 16.0065C146.749 16.0377 146.755 16.0736 146.753 16.1139L146.664 17.4711C147.135 17.0579 147.545 16.7544 147.895 16.5621C148.524 16.2269 149.156 16.0796 149.793 16.1215C150.718 16.1817 151.49 16.6271 152.104 17.4577C152.721 18.2889 152.983 19.3871 152.894 20.7539C152.807 22.0944 152.327 23.2844 151.454 24.3235C150.581 25.3626 149.538 25.8434 148.324 25.7639C147.949 25.7392 147.625 25.671 147.358 25.5593C146.938 25.39 146.558 25.1064 146.221 24.7077L146.005 28.0066C145.961 28.6841 146.044 29.1064 146.255 29.2756C146.467 29.4444 146.942 29.5798 147.683 29.6819L147.661 30.0343L142.691 29.7087L142.712 29.3766H142.713ZM147.009 24.6426C147.339 24.8897 147.74 25.0284 148.208 25.059C148.932 25.1068 149.575 24.7865 150.135 24.0999C150.695 23.4144 151.017 22.4278 151.102 21.1417C151.182 19.9097 150.975 18.9717 150.482 18.3268C149.99 17.6821 149.39 17.3372 148.686 17.2915C148.19 17.2587 147.728 17.3812 147.298 17.659C146.869 17.9378 146.646 18.2238 146.626 18.5182L146.295 23.5717C146.44 24.0386 146.677 24.3955 147.009 24.6426Z" fill="black"/>
<path d="M154.472 25.6915C155.098 25.6717 155.53 25.5739 155.764 25.3965C155.998 25.2203 156.132 24.8533 156.169 24.2967L156.811 14.4683C156.84 14.0262 156.824 13.7188 156.762 13.5463C156.646 13.2556 156.383 13.0972 155.974 13.0703C155.88 13.0638 155.778 13.0671 155.665 13.0799C155.554 13.0928 155.412 13.1144 155.241 13.1433L155.264 12.8112C156.185 12.6292 157.296 12.3782 158.596 12.0591C158.644 12.0623 158.67 12.0849 158.678 12.1257C158.685 12.166 158.684 12.2541 158.676 12.3884L157.887 24.4497C157.849 25.0326 157.925 25.4167 158.115 25.6006C158.305 25.7854 158.713 25.9213 159.34 26.0094L159.322 26.291L154.454 25.9728L154.472 25.6913L154.472 25.6915Z" fill="black"/>
<path d="M162.921 18.4393C163.83 17.5727 164.951 17.1832 166.286 17.2702C167.614 17.3572 168.686 17.8655 169.499 18.7939C170.315 19.7234 170.675 20.9113 170.58 22.3597C170.492 23.6948 169.995 24.8269 169.085 25.7575C168.176 26.6886 167.05 27.1103 165.708 27.0222C164.421 26.9383 163.361 26.3936 162.532 25.3895C161.701 24.3858 161.334 23.1699 161.427 21.7409C161.514 20.4074 162.013 19.3059 162.921 18.4393ZM164.545 18.2883C163.832 18.854 163.428 19.8851 163.33 21.3803C163.252 22.5741 163.45 23.7051 163.923 24.7737C164.396 25.8419 165.113 26.4071 166.074 26.4698C166.827 26.5193 167.429 26.2114 167.88 25.5478C168.331 24.8833 168.594 23.9913 168.668 22.8712C168.743 21.7112 168.556 20.6012 168.106 19.5417C167.655 18.4816 166.94 17.919 165.959 17.8551C165.428 17.8202 164.956 17.9642 164.545 18.2882V18.2883Z" fill="black"/>
<path d="M171.857 26.778C172.477 26.7645 172.894 26.6829 173.106 26.5309C173.317 26.3805 173.441 26.036 173.476 25.4998L173.773 20.963C173.816 20.2989 173.785 19.8202 173.679 19.5268C173.574 19.2334 173.357 19.0772 173.028 19.0556C172.962 19.0507 172.873 19.0535 172.761 19.0626C172.649 19.0728 172.532 19.0873 172.409 19.1055L172.431 18.7734C172.82 18.6638 173.221 18.5526 173.631 18.4382C174.041 18.3226 174.325 18.241 174.483 18.1905C174.826 18.0852 175.179 17.9632 175.544 17.8252C175.591 17.8279 175.618 17.8473 175.626 17.8811C175.633 17.9155 175.634 17.9864 175.628 18.0934L175.519 19.7433C175.989 19.1744 176.435 18.736 176.856 18.4265C177.278 18.1176 177.705 17.9768 178.134 18.0047C178.478 18.0272 178.75 18.148 178.952 18.3662C179.154 18.5848 179.245 18.8482 179.225 19.1575C179.207 19.4326 179.11 19.6582 178.933 19.8344C178.757 20.0128 178.544 20.0923 178.296 20.0762C178.041 20.0596 177.792 19.9258 177.55 19.6743C177.306 19.4224 177.111 19.2912 176.963 19.2816C176.729 19.2665 176.428 19.4373 176.061 19.7936C175.694 20.1498 175.497 20.5302 175.472 20.9322L175.175 25.4695C175.137 26.0465 175.245 26.4554 175.499 26.6977C175.752 26.9395 176.192 27.0749 176.816 27.1017L176.794 27.4338L171.835 27.1098L171.857 26.7777L171.857 26.778Z" fill="black"/>
<path d="M187.206 19.6234C187.874 20.3241 188.169 21.2745 188.09 22.4747L181.703 22.0573C181.669 23.6137 181.946 24.7684 182.537 25.5184C183.127 26.2696 183.859 26.674 184.731 26.7311C185.435 26.7772 186.04 26.6317 186.547 26.2954C187.054 25.9586 187.535 25.4659 187.987 24.8168L188.332 24.9602C188.001 25.7956 187.435 26.5511 186.633 27.2275C185.831 27.9034 184.883 28.2053 183.79 28.1339C182.529 28.0517 181.586 27.5118 180.962 26.514C180.335 25.5174 180.064 24.3988 180.146 23.1577C180.234 21.8097 180.709 20.6722 181.571 19.7444C182.433 18.8181 183.505 18.3963 184.786 18.4802C185.732 18.5419 186.537 18.9234 187.206 19.6234H187.206ZM182.337 20.078C182.099 20.4261 181.915 20.872 181.785 21.4163L186.03 21.6935C186 21.0187 185.906 20.5104 185.746 20.1698C185.455 19.5578 184.925 19.2268 184.154 19.1764C183.389 19.1265 182.783 19.4274 182.337 20.078Z" fill="black"/>
<g filter="url(#filter1_d_452_357)">
<path d="M108.809 5.61296L76.8821 5.00049L76.2892 35.9066L108.216 36.5191L108.809 5.61296Z" fill="black"/>
</g>
<path d="M76.7356 34.4635L77.2945 5.32604L108.251 5.9199L107.692 35.0573L76.7356 34.4635Z" fill="#EFEFF0" stroke="black" stroke-width="0.432928"/>
<path d="M89.0211 15.9903L89.0071 16.7156L86.9505 16.6764L86.8194 22.4817C86.8098 22.9926 86.8463 23.38 86.928 23.6438C87.0806 24.1106 87.3923 24.3481 87.8629 24.3572C88.1036 24.3615 88.3153 24.309 88.4957 24.1976C88.6752 24.0869 88.8826 23.9096 89.1157 23.6652L89.3735 23.892L89.1458 24.1901C88.7869 24.6544 88.4109 24.9794 88.0175 25.1663C87.6243 25.3538 87.247 25.4441 86.8838 25.4371C86.0909 25.422 85.56 25.0589 85.2903 24.348C85.1441 23.9618 85.0775 23.4299 85.0903 22.7512L85.2075 16.643L84.1083 16.6215C84.075 16.601 84.0503 16.5802 84.0342 16.5602C84.0181 16.5393 84.0095 16.5124 84.0106 16.4791C84.0117 16.412 84.0278 16.3598 84.0589 16.3234C84.09 16.2869 84.1868 16.2036 84.3512 16.0719C84.8218 15.698 85.1625 15.3939 85.3709 15.1591C85.5816 14.9249 86.0748 14.3037 86.8549 13.2969C86.9419 13.2985 86.9935 13.306 87.0106 13.32C87.0267 13.3334 87.0342 13.3845 87.0321 13.4715L86.9848 15.9516L89.0211 15.9903Z" fill="black"/>
<path d="M92.1267 17.2745C92.9949 16.3665 94.0964 15.9259 95.4341 15.9518C96.7644 15.9776 97.8583 16.4347 98.7147 17.325C99.5721 18.2158 99.9859 19.3861 99.9579 20.8377C99.9321 22.1751 99.4873 23.3296 98.6212 24.301C97.7562 25.2718 96.6515 25.7452 95.3073 25.7195C94.0168 25.6948 92.9346 25.1999 92.0589 24.2355C91.1832 23.2706 90.7598 22.073 90.7866 20.6417C90.8124 19.305 91.2583 18.1825 92.1266 17.2746L92.1267 17.2745ZM93.7417 17.0487C93.0562 17.6468 92.6994 18.6954 92.6714 20.1934C92.6478 21.39 92.8971 22.5102 93.4193 23.5557C93.9416 24.6013 94.6841 25.1327 95.6469 25.1509C96.4012 25.1654 96.988 24.8312 97.408 24.1468C97.8292 23.4622 98.0495 22.5591 98.0711 21.4368C98.0937 20.2746 97.8562 19.1743 97.3565 18.1362C96.8579 17.0982 96.1175 16.5695 95.1343 16.5508C94.6024 16.5406 94.1382 16.7059 93.7417 17.0487Z" fill="black"/>
<g filter="url(#filter2_d_452_357)">
<path d="M74.6083 1.99992L3 10.2549L6.54005 40.9633L78.1483 32.7083L74.6083 1.99992Z" fill="black"/>
</g>
<path d="M7.04189 39.4445L3.70443 10.4935L73.6763 2.42715L77.0138 31.3782L7.04189 39.4445Z" fill="#EFEFF0" stroke="black" stroke-width="0.432928"/>
<path d="M16.0845 26.9633L16.415 26.9251C16.6557 27.6693 16.9292 28.2291 17.2366 28.6068C17.7883 29.3004 18.5142 29.5959 19.4135 29.4922C19.9132 29.4347 20.292 29.2505 20.5493 28.9398C20.8078 28.6293 20.9115 28.2537 20.8604 27.8132C20.8283 27.5332 20.7132 27.2722 20.516 27.0309C20.3193 26.7892 19.9965 26.5704 19.5478 26.3717L18.3524 25.8597C17.4804 25.5136 16.8248 25.1392 16.3859 24.7368C15.947 24.3338 15.6923 23.8293 15.6219 23.2211C15.5359 22.4738 15.7326 21.8285 16.2107 21.2863C16.6899 20.7437 17.333 20.4261 18.1411 20.3332C18.4946 20.2924 18.8906 20.3144 19.3307 20.3994C19.7702 20.4838 20.0162 20.5229 20.0695 20.5166C20.1904 20.5026 20.2748 20.4763 20.3242 20.4366C20.3741 20.3974 20.415 20.3387 20.4461 20.2604L20.6869 20.2329L21.0791 23.0182L20.768 23.0541C20.5601 22.4222 20.3214 21.9382 20.0534 21.6046C19.5623 20.9846 18.9267 20.7196 18.145 20.81C17.6776 20.8638 17.3273 21.0501 17.093 21.3671C16.8593 21.6846 16.7648 22.0376 16.8094 22.425C16.8803 23.0391 17.4042 23.5334 18.381 23.9085L19.7843 24.4667C21.2962 25.0776 22.1107 25.8969 22.2289 26.9247C22.3202 27.7123 22.0999 28.391 21.5669 28.9594C21.035 29.5284 20.2925 29.868 19.3394 29.9782C18.9397 30.0243 18.4787 30.0094 17.9565 29.9341C17.4354 29.8589 17.127 29.8267 17.0335 29.8374C16.954 29.847 16.8874 29.8836 16.8342 29.947C16.7804 30.0104 16.7419 30.084 16.7181 30.1684L16.4576 30.1979L16.0847 26.9635L16.0845 26.9633Z" fill="black"/>
<path d="M30.44 19.5879C31.0944 19.9479 31.4506 20.3832 31.5091 20.8951C31.535 21.1153 31.4817 21.3286 31.3501 21.536C31.2186 21.7435 30.9917 21.8649 30.671 21.902C30.4372 21.9288 30.2235 21.8724 30.0279 21.7327C29.8323 21.5931 29.6771 21.3743 29.5615 21.0767L29.3858 20.6098C29.2579 20.2653 29.0791 20.0327 28.8486 19.9103C28.6122 19.7959 28.3139 19.7593 27.9535 19.8007C27.1922 19.8888 26.5877 20.295 26.1402 21.0209C25.6932 21.7467 25.5325 22.6606 25.6598 23.7642C25.7759 24.7732 26.1691 25.6458 26.8392 26.3812C27.5092 27.1168 28.3355 27.4284 29.316 27.315C30.0108 27.235 30.6017 26.9367 31.0912 26.4188C31.3679 26.1233 31.6671 25.6682 31.989 25.0546L32.2887 25.1933C32.0007 26.0395 31.6736 26.7197 31.3066 27.2371C30.6017 28.2256 29.7195 28.7812 28.6579 28.9031C27.6167 29.0234 26.6474 28.7183 25.7512 27.9897C24.8555 27.2607 24.3269 26.192 24.1641 24.7833C24.0051 23.4014 24.3049 22.1625 25.0645 21.0669C25.8248 19.9714 26.8725 19.3466 28.2081 19.1923C29.042 19.0967 29.786 19.2279 30.44 19.5879Z" fill="black"/>
<path d="M34.1955 27.7369C34.8032 27.6129 35.198 27.4575 35.3797 27.271C35.5608 27.0846 35.621 26.724 35.5592 26.1895L35.0385 21.6732C34.9623 21.0124 34.8462 20.547 34.6898 20.278C34.5335 20.0078 34.2922 19.8922 33.965 19.9304C33.8979 19.9379 33.8103 19.9562 33.7023 19.9847C33.5944 20.0148 33.4815 20.0502 33.3644 20.0905L33.3262 19.76C33.69 19.5822 34.0639 19.4011 34.447 19.2147C34.8301 19.0282 35.0949 18.8966 35.2406 18.8187C35.5587 18.6537 35.8853 18.47 36.2195 18.2696C36.2657 18.2642 36.2964 18.2782 36.3103 18.3094C36.3238 18.3422 36.3372 18.4115 36.3495 18.5184L36.5386 20.1604C36.8985 19.5173 37.2586 19.0058 37.618 18.626C37.9779 18.2467 38.3718 18.0318 38.8006 17.9823C39.1423 17.9431 39.4313 18.0124 39.6699 18.1913C39.9074 18.3703 40.0438 18.6131 40.0794 18.9209C40.1111 19.1943 40.0558 19.4339 39.9139 19.6397C39.772 19.846 39.5771 19.9632 39.3298 19.9917C39.0763 20.0206 38.8076 19.9331 38.5239 19.729C38.2391 19.5248 38.0237 19.4313 37.8771 19.4479C37.6433 19.4754 37.3785 19.6973 37.0814 20.1131C36.7842 20.53 36.6585 20.9389 36.7047 21.3391L37.2254 25.8559C37.292 26.4303 37.4715 26.8134 37.7642 27.0062C38.057 27.199 38.5127 27.2528 39.1327 27.1679L39.1709 27.4984L34.2338 28.0674L34.1956 27.7369H34.1955Z" fill="black"/>
<path d="M42.6776 18.9707C43.4169 17.9558 44.4495 17.3712 45.7787 17.2181C47.1004 17.0655 48.2453 17.3734 49.2135 18.1411C50.1817 18.9094 50.7479 20.0141 50.9145 21.4561C51.0676 22.7854 50.7807 23.9888 50.0522 25.0672C49.3242 26.1454 48.2926 26.7617 46.9569 26.9159C45.6755 27.0637 44.536 26.7176 43.5393 25.8785C42.5427 25.0399 41.9635 23.9088 41.7996 22.4872C41.646 21.1585 41.9393 19.9866 42.6776 18.9707ZM44.2475 18.5312C43.6485 19.2163 43.4352 20.3026 43.6066 21.7915C43.7436 22.9799 44.1406 24.0572 44.7978 25.0238C45.4543 25.9892 46.2613 26.4175 47.2176 26.3073C47.9672 26.2208 48.5044 25.8104 48.8294 25.0764C49.155 24.342 49.2527 23.4173 49.1244 22.3019C48.9918 21.1473 48.6091 20.0884 47.9763 19.1267C47.3434 18.165 46.5385 17.7399 45.5623 17.8522C45.0336 17.9135 44.5952 18.1396 44.2475 18.5314V18.5312Z" fill="black"/>
<path d="M53.2982 25.5858C53.9117 25.4541 54.3179 25.28 54.5167 25.0646C54.715 24.8492 54.7821 24.4635 54.7181 23.9095L53.5904 14.1252C53.5394 13.6846 53.4679 13.3854 53.375 13.2269C53.2096 12.9614 52.9227 12.8524 52.5154 12.8997C52.422 12.9104 52.321 12.9319 52.214 12.9647C52.1061 12.9975 51.9707 13.0437 51.8085 13.1033L51.7703 12.7729C52.6439 12.4279 53.6922 11.9825 54.9144 11.4355C54.9612 11.4302 54.9918 11.4474 55.0068 11.4861C55.0213 11.5253 55.0364 11.6112 55.052 11.745L56.436 23.7526C56.5026 24.3334 56.646 24.6971 56.8663 24.8444C57.0854 24.9916 57.5121 25.0518 58.1456 25.0271L58.1778 25.307L53.3305 25.8657L53.2982 25.5858Z" fill="black"/>
<path d="M59.838 24.8327C60.4515 24.7011 60.8577 24.527 61.056 24.3116C61.2543 24.0962 61.3215 23.7104 61.2574 23.1564L60.1298 13.3721C60.0787 12.9316 60.0072 12.6323 59.9143 12.4738C59.7489 12.2084 59.462 12.0993 59.0547 12.1466C58.9618 12.1573 58.8608 12.1788 58.7534 12.2116C58.6454 12.2444 58.51 12.2906 58.3478 12.3503L58.3096 12.0193C59.1832 11.6749 60.232 11.2295 61.4537 10.6826C61.501 10.6772 61.5311 10.6945 61.5461 10.7331C61.5606 10.7723 61.5757 10.8583 61.5906 10.9921L62.9752 22.9997C63.0423 23.5805 63.1858 23.9442 63.4055 24.0914C63.6251 24.2387 64.0518 24.2988 64.6841 24.2741L64.717 24.5541L59.8702 25.1128L59.838 24.8327Z" fill="black"/>
<defs>
<filter id="filter0_d_452_357" x="109.162" y="0.715864" width="90.2584" height="40.3937" filterUnits="userSpaceOnUse" color-interpolation-filters="sRGB">
<feFlood flood-opacity="0" result="BackgroundImageFix"/>
<feColorMatrix in="SourceAlpha" type="matrix" values="0 0 0 0 0 0 0 0 0 0 0 0 0 0 0 0 0 0 127 0" result="hardAlpha"/>
<feOffset dx="-0.721547" dy="0.721547"/>
<feGaussianBlur stdDeviation="1.01017"/>
<feComposite in2="hardAlpha" operator="out"/>
<feColorMatrix type="matrix" values="0 0 0 0 0 0 0 0 0 0 0 0 0 0 0 0 0 0 0.5 0"/>
<feBlend mode="normal" in2="BackgroundImageFix" result="effect1_dropShadow_452_357"/>
<feBlend mode="normal" in="SourceGraphic" in2="effect1_dropShadow_452_357" result="shape"/>
</filter>
<filter id="filter1_d_452_357" x="73.5474" y="3.7017" width="36.5607" height="35.5592" filterUnits="userSpaceOnUse" color-interpolation-filters="sRGB">
<feFlood flood-opacity="0" result="BackgroundImageFix"/>
<feColorMatrix in="SourceAlpha" type="matrix" values="0 0 0 0 0 0 0 0 0 0 0 0 0 0 0 0 0 0 127 0" result="hardAlpha"/>
<feOffset dx="-0.721547" dy="0.721547"/>
<feGaussianBlur stdDeviation="1.01017"/>
<feComposite in2="hardAlpha" operator="out"/>
<feColorMatrix type="matrix" values="0 0 0 0 0 0 0 0 0 0 0 0 0 0 0 0 0 0 0.5 0"/>
<feBlend mode="normal" in2="BackgroundImageFix" result="effect1_dropShadow_452_357"/>
<feBlend mode="normal" in="SourceGraphic" in2="effect1_dropShadow_452_357" result="shape"/>
</filter>
<filter id="filter2_d_452_357" x="0.258122" y="0.701216" width="79.1889" height="43.004" filterUnits="userSpaceOnUse" color-interpolation-filters="sRGB">
<feFlood flood-opacity="0" result="BackgroundImageFix"/>
<feColorMatrix in="SourceAlpha" type="matrix" values="0 0 0 0 0 0 0 0 0 0 0 0 0 0 0 0 0 0 127 0" result="hardAlpha"/>
<feOffset dx="-0.721547" dy="0.721547"/>
<feGaussianBlur stdDeviation="1.01017"/>
<feComposite in2="hardAlpha" operator="out"/>
<feColorMatrix type="matrix" values="0 0 0 0 0 0 0 0 0 0 0 0 0 0 0 0 0 0 0.5 0"/>
<feBlend mode="normal" in2="BackgroundImageFix" result="effect1_dropShadow_452_357"/>
<feBlend mode="normal" in="SourceGraphic" in2="effect1_dropShadow_452_357" result="shape"/>
</filter>
</defs>
</svg>
